# xmcd
#
# Track frame offsets:
#   150
#   12447
#   25425
#   38772
#   51297
#   64425
#   77247
#   89322
#   100872
#   112875
#   125247
#   134475
#   148947
#   162297
#   173022
#
# Disc length: 2501 seconds
#
# Revision: 7
# Processed by: cddbd v1.5.1PL0 Copyright (c) Steve Scherf et al.
# Submitted via: Media_Universe 3.0
#
DISCID=d609c30f
DTITLE=Various Artist - Classic Rhythm and Blues Collection [CD1] (1964-1967)
DYEAR=2000
DGENRE=R&B
TTITLE0=The Four Tops - I Can't Help Myself (Sugar Pie, Honeybunch)
TTITLE1=Percy Sledge - When A Man Loves A Woman
TTITLE2=Jimmy Ruffin - What Becomes of the Brokenhearted
TTITLE3=The Supremes - You Can't Hurry Love
TTITLE4=The Miracles - The Tracks of My Tears
TTITLE5=Fontella Bass - Rescue Me
TTITLE6=The Impressions - People Get Ready
TTITLE7=The Supremes - Where Did Our Love Go
TTITLE8=Martha and the Vendellas - Dancing in the Street
TTITLE9=The Temtations - My Girl
TTITLE10=James Brown - Papa's Got a Brand New Bag
TTITLE11=Otis Redding - I've Been Loving You too Long (To Stop Now)
TTITLE12=The Supremes - Back in My Arms Again
TTITLE13=The Temtations - Beauty is Only Skin Deep
TTITLE14=Ramsey Lewis Trio - The "In" Crowd
EXTD=YEAR: 2000 ID3G: 14
EXTT0=
EXTT1=
EXTT2=
EXTT3=
EXTT4=
EXTT5=
EXTT6=
EXTT7=
EXTT8=
EXTT9=
EXTT10=
EXTT11=
EXTT12=
EXTT13=
EXTT14=
PLAYORDER=
